<?xml version="1.0" encoding="UTF-8"?>
<svg id="Layer_1" xmlns="http://www.w3.org/2000/svg" version="1.1" viewBox="0 0 384 384">
  <!-- Generator: Adobe Illustrator 29.8.3, SVG Export Plug-In . SVG Version: 2.1.1 Build 3)  -->
  <defs>
    <style>
      .st0 {
        fill: none;
        stroke: #000;
        stroke-width: 10px;
      }
    </style>
  </defs>
  <path class="st0" d="M124.94,220.38l36.61-36.52M170.31,90.16l23.08-41.29c-39.48-16.52-81.71-6.88-97.1,0l21.49,41.29M170.31,90.16h-52.53M170.31,107.63c4.84,0,8.75-3.91,8.75-8.73s-3.92-8.74-8.75-8.74M117.78,107.63c-4.84,0-8.75-3.91-8.75-8.73s3.92-8.74,8.75-8.74M117.78,107.63h52.53M170.31,125.1c4.84,0,8.75-3.91,8.75-8.74s-3.92-8.73-8.75-8.73M117.78,125.1c-4.84,0-8.75-3.91-8.75-8.74s3.92-8.73,8.75-8.73M117.78,125.1l-46.96,78.97c-8.48,16.17-9.9,32.43-9.55,38.54,0,9.35,1.56,18.33,4.43,26.71M117.78,125.1h52.53M226.82,243.43c0-17.79-6.37-33.93-9.55-39.36l-46.96-78.97M287.3,255.32h38.2v88.93h-38.2v-88.93h0ZM287.3,326.78s-33.43-2.04-57.3,3.88c-3.62.9-7.27,1.67-10.94,2.33-36.96,6.58-64.33-1.39-67.14-2.25-.18-.05-.32-.11-.5-.16l-79.88-27.85c-10.15-3.54-15.49-14.61-11.95-24.73h0c1.19-3.4,3.3-6.4,6.1-8.67M172.69,287.07h-20.8c-3.09,0-6.17-.5-9.1-1.48l-58.42-19.52c-6.61-2.3-13.61-.84-18.68,3.25M172.69,287.08c-10.55,0-19.1-8.53-19.1-19.06s8.55-19.06,19.1-19.06h43.04c.74,0,1.45-.26,2.05-.7,4.54-3.32,15.5-8.83,29.73-8.83,16.05,0,30.16,5.76,39.79,15.88M217.26,287.08h-44.57"/>
</svg>