<svg width="105" height="90" viewBox="0 0 105 90" fill="none" xmlns="http://www.w3.org/2000/svg">
<path d="M46.9805 39.2533V28.2192C46.9772 25.8974 47.8244 23.6545 49.3613 21.914M75.5345 39.2566V28.2225C75.5345 22.9583 71.2719 18.6891 66.0176 18.6891H56.5007C53.6568 18.6891 51.1051 19.937 49.3613 21.9172M23.1849 39.2566V28.2225C23.1816 25.9007 24.0288 23.6577 25.5657 21.9172C27.3095 19.937 29.8612 18.6891 32.7051 18.6891H42.2253C45.0692 18.6891 47.6208 19.937 49.3646 21.9172M71.8236 63.3937L86.3256 54.7897C91.6982 52.1002 97.6422 52.9606 102 59.3413L61.801 86.7164C59.962 87.9676 57.7092 88.4569 55.5155 88.0826L21.336 82.2174H2V60.7041H20.827C24.7874 54.862 31.4769 51.023 39.0595 51.023C44.2843 51.023 49.0822 52.8456 52.8555 55.8866C53.2594 56.2117 53.7553 56.4022 54.2709 56.4022H64.8387C68.5791 56.4022 71.6397 59.696 71.8204 63.3937H71.8236ZM71.8236 63.3937C71.8236 67.2556 68.6973 70.3853 64.8419 70.3853H39.5981M69.5873 10.3446C69.5873 14.952 65.8567 18.6891 61.2591 18.6891C56.6616 18.6891 52.931 14.9552 52.931 10.3446C52.931 5.73715 56.6583 2 61.2591 2C65.86 2 69.5873 5.73715 69.5873 10.3446ZM45.7917 10.3446C45.7917 14.952 42.0611 18.6891 37.4635 18.6891C32.866 18.6891 29.1354 14.9552 29.1354 10.3446C29.1354 5.73715 32.8627 2 37.4635 2C42.0644 2 45.7917 5.73715 45.7917 10.3446Z" stroke="black" stroke-width="3"/>
</svg>
