<svg width="100" height="100" viewBox="0 0 100 100" fill="none" xmlns="http://www.w3.org/2000/svg">
<path d="M71.874 95.8331H54.1657V90.6248C54.1657 90.0519 53.0719 74.4998 64.8011 65.8227C66.2758 64.7685 67.628 63.5526 68.8324 62.1977L82.3115 46.5727C83.1136 45.6383 84.2207 45.0183 85.4365 44.8227V20.8331C85.435 19.4941 85.9493 18.2058 86.8726 17.2359C87.7959 16.2661 89.0573 15.6891 90.3949 15.6248C91.0817 15.5953 91.7673 15.7056 92.4101 15.9491C93.053 16.1926 93.6396 16.5643 94.1344 17.0415C94.6738 17.5649 95.1021 18.1916 95.3938 18.8843C95.6855 19.5769 95.8347 20.3212 95.8324 21.0727V52.3227C95.8344 53.8223 95.9494 55.3196 96.1761 56.8019C96.6344 59.9269 96.8011 65.9477 92.6657 70.5519C86.9365 76.9581 82.0824 81.8852 76.9469 87.0936L74.6865 89.3644L71.874 91.1873V95.8331ZM56.249 93.7498H69.7907V90.0623L73.4157 87.6873L75.4365 85.604C80.5511 80.3956 85.3844 75.4998 91.0615 69.1144C94.6344 65.1456 94.4678 59.8644 94.0615 57.0623C93.8412 55.4888 93.7368 53.9012 93.749 52.3123V21.0623C93.7533 20.5953 93.6633 20.1322 93.4843 19.7008C93.3053 19.2694 93.0411 18.8787 92.7074 18.5519C92.4168 18.2703 92.0723 18.0504 91.6946 17.9054C91.3169 17.7604 90.9138 17.6933 90.5094 17.7081C89.7007 17.7378 88.9349 18.0801 88.3734 18.663C87.812 19.2458 87.4985 20.0238 87.499 20.8331V44.9581C88.2687 45.1621 88.9815 45.5398 89.5824 46.0623C90.1015 46.5039 90.5273 47.0445 90.835 47.6527C91.1426 48.2608 91.3259 48.9242 91.374 49.604C91.374 49.7394 91.374 49.8644 91.374 49.9998C91.3733 51.251 90.9222 52.4601 90.1032 53.4061L76.3324 69.479C76.1487 69.6779 75.8949 69.7975 75.6246 69.8125C75.3543 69.8275 75.0888 69.7367 74.8843 69.5593C74.6798 69.3819 74.5525 69.1318 74.5291 68.8621C74.5058 68.5924 74.5884 68.3242 74.7594 68.1144L88.6449 52.0831C89.1506 51.5086 89.422 50.765 89.4053 49.9998V49.7915C89.3395 48.9887 88.9663 48.2424 88.3636 47.7081C87.8479 47.2119 87.1718 46.9163 86.4574 46.8748H86.249C85.8087 46.8742 85.3731 46.9667 84.971 47.1462C84.5689 47.3258 84.2093 47.5882 83.9157 47.9165L70.4365 63.5415C69.1316 65.0112 67.6678 66.3317 66.0719 67.479C55.2803 75.479 56.249 90.3956 56.249 90.5415V93.7498Z" fill="black" stroke="#32373C"/>
<path d="M46.3964 95.8335H28.6881V91.1876L25.7402 89.2189L23.6568 87.1355C18.5214 81.9272 13.6673 77.0001 7.90685 70.5835C3.74018 65.9793 3.92768 59.9897 4.39643 56.8335C4.61465 55.3503 4.72605 53.8534 4.72976 52.3543V21.1043C4.72929 20.3471 4.88227 19.5976 5.17947 18.9012C5.47666 18.2048 5.91191 17.5758 6.45893 17.0522C6.9513 16.5739 7.5358 16.2008 8.17687 15.9555C8.81795 15.7101 9.50222 15.5978 10.1881 15.6251C11.4799 15.6792 12.7037 16.2186 13.6152 17.1355C14.1017 17.6205 14.4874 18.1969 14.7502 18.8315C15.013 19.4662 15.1477 20.1465 15.1464 20.8335V44.8751C16.3622 45.0707 17.4694 45.6907 18.2714 46.6251L31.7506 62.2501C32.955 63.605 34.3072 64.8209 35.7818 65.8751C47.511 74.5522 46.4589 90.1043 46.4068 90.7605L46.3964 95.8335ZM30.7714 93.7501H44.3131V90.6251C44.3131 90.396 45.3548 75.4793 34.5318 67.5001C32.9473 66.3466 31.4972 65.0188 30.2089 63.5418L16.6673 47.9793C16.3725 47.6497 16.0112 47.3865 15.6072 47.2069C15.2032 47.0274 14.7656 46.9356 14.3235 46.9376H14.136C13.444 46.9676 12.7828 47.2321 12.261 47.6876C11.6583 48.2219 11.2851 48.9682 11.2193 49.771C11.2193 49.8543 11.2193 49.9272 11.2193 50.0105C11.2005 50.7693 11.4641 51.508 11.9589 52.0835L25.8443 68.1147C26.0154 68.3246 26.098 68.5927 26.0746 68.8624C26.0513 69.1321 25.9239 69.3822 25.7195 69.5596C25.515 69.737 25.2495 69.8278 24.9792 69.8128C24.7089 69.7978 24.455 69.6782 24.2714 69.4793L10.4173 53.4376C9.5761 52.4896 9.10946 51.2675 9.10476 50.0001C9.10476 49.8647 9.10476 49.7397 9.10476 49.6043C9.20843 48.2298 9.85271 46.9525 10.8964 46.0522C11.5109 45.5125 12.2473 45.13 13.0423 44.9376V20.8335C13.0433 20.4215 12.9628 20.0133 12.8055 19.6325C12.6482 19.2518 12.4171 18.9058 12.1256 18.6147C11.5694 18.0619 10.8258 17.7385 10.0423 17.7085C9.63692 17.6925 9.23263 17.7601 8.85452 17.9071C8.47641 18.054 8.13256 18.2772 7.84435 18.5626C7.51114 18.8897 7.24719 19.2806 7.06823 19.7119C6.88927 20.1432 6.79896 20.6061 6.80268 21.073V52.323C6.80276 53.9233 6.68439 55.5215 6.44851 57.1043C6.03185 59.9064 5.8756 65.1876 9.44851 69.1564C15.1777 75.5418 20.011 80.448 25.1256 85.646L27.1464 87.7293L30.761 90.1043L30.7714 93.7501Z" fill="black" stroke="#32373C"/>
<path d="M61.23 61.3127H61.1675C60.916 61.2984 60.6782 61.1934 60.4982 61.0172C60.3182 60.841 60.2081 60.6055 60.1884 60.3544C60.1259 60.2711 59.6884 59.8336 57.9175 59.8336C53.0321 59.8336 49.4592 59.7294 48.1363 58.3961C47.0113 57.2815 47.6363 55.469 48.2404 53.719C48.5918 52.8605 48.8333 51.961 48.9592 51.0419C48.1384 50.8337 47.2955 50.7253 46.4488 50.719C43.9384 50.5627 40.8134 50.3752 39.9696 47.844C39.6675 46.9273 38.8238 46.8023 36.4592 47.0419C34.6259 47.1877 32.5529 47.3648 31.1779 46.0002C30.5001 45.4509 29.9638 44.7472 29.614 43.9479C29.2642 43.1486 29.1111 42.2771 29.1675 41.4065C29.2799 40.7959 29.5425 40.2229 29.9317 39.7391C30.3208 39.2554 30.8243 38.8762 31.3967 38.6356C32.6988 37.9794 34.5217 38.6356 36.5425 39.4586C39.0946 40.4273 41.9904 41.5419 43.5634 39.9586C46.2925 37.2398 45.6467 35.6565 43.5634 33.5211C43.3222 33.2162 42.9913 32.9948 42.6174 32.8883C42.2436 32.7817 41.8457 32.7954 41.48 32.9273C41.0938 33.0471 40.7383 33.2498 40.4384 33.5211L39.9071 34.0523L34.5634 31.3752V31.2502C33.7505 30.4167 33.0341 29.4942 32.4279 28.5002C30.6988 25.6252 31.3863 23.9377 32.2613 23.0211C31.5634 22.4586 28.8029 21.6981 26.1154 21.3648C25.8421 21.3285 25.5943 21.1853 25.4264 20.9666C25.2585 20.7479 25.1841 20.4716 25.2196 20.1981C25.256 19.9269 25.3977 19.6808 25.6141 19.5132C25.8304 19.3455 26.1041 19.2698 26.3759 19.3023C29.0634 19.6356 33.6675 20.4898 34.3446 22.4273C34.4595 22.7814 34.4664 23.1617 34.3643 23.5198C34.2623 23.8778 34.056 24.1974 33.7717 24.4377C32.5634 25.6461 35.0113 28.6773 35.9175 29.6461L39.6884 31.5315C40.067 31.2787 40.4766 31.0756 40.9071 30.9273C41.6329 30.6865 42.4131 30.6616 43.1528 30.8558C43.8925 31.05 44.5598 31.4548 45.0738 32.0211C47.2509 34.2086 49.2404 37.2294 45.0738 41.3961C42.5425 43.9273 38.8238 42.5002 35.8238 41.3961C34.5634 40.9169 32.8446 40.2606 32.355 40.5002C32.0846 40.6024 31.843 40.7686 31.6507 40.9844C31.4584 41.2003 31.3213 41.4594 31.2509 41.7398C31.2673 42.2704 31.3988 42.7911 31.6362 43.2659C31.8736 43.7407 32.2113 44.1583 32.6259 44.4898C33.3134 45.1773 34.8134 45.0523 36.2717 44.9273C38.355 44.7502 41.0529 44.5315 41.9279 47.1565C42.3238 48.344 44.6675 48.4898 46.5529 48.6044C48.6363 48.7294 51.0321 48.8752 51.0321 50.8752C50.9425 52.0856 50.6613 53.274 50.1988 54.3961C49.8436 55.2024 49.6423 56.0679 49.605 56.9481C50.4175 57.7502 55.48 57.7502 57.9384 57.7502C58.6099 57.6802 59.2887 57.7456 59.9346 57.9424C60.5805 58.1392 61.1803 58.4635 61.6988 58.8961C61.8892 59.0835 62.0399 59.3074 62.1419 59.5544C62.2439 59.8014 62.2952 60.0664 62.2925 60.3336C62.2764 60.6025 62.1568 60.8547 61.9586 61.0373C61.7605 61.2199 61.4994 61.3186 61.23 61.3127Z" fill="black" stroke="black"/>
<path d="M59.4687 36.9475C58.0521 36.9475 56.8021 35.6142 55.9687 34.5621C51.4479 28.5308 46.4062 23.385 45.0417 23.385C44.545 23.8842 43.907 24.2189 43.214 24.3437C42.5209 24.4686 41.8063 24.3775 41.1667 24.0829C40.2028 23.6532 39.3701 22.9756 38.7534 22.1193C38.1368 21.2629 37.7582 20.2583 37.6562 19.2079C37.6562 17.5413 39.5625 16.6038 41.3958 15.6975C42.2142 15.3562 42.9818 14.9041 43.6771 14.3538L43.6146 14.2913C43.3165 14.0012 43.0821 13.6523 42.926 13.2667C42.77 12.8812 42.6959 12.4674 42.7083 12.0517C42.8021 9.37459 46.1458 6.24959 46.5312 5.88501C46.6292 5.77722 46.7487 5.69118 46.882 5.63243C47.0153 5.57368 47.1594 5.54354 47.305 5.54395C47.4507 5.54436 47.5946 5.57531 47.7276 5.6348C47.8605 5.6943 47.9795 5.78101 48.0769 5.88935C48.1743 5.99769 48.2478 6.12524 48.2928 6.26377C48.3378 6.4023 48.3533 6.54873 48.3382 6.6936C48.3231 6.83847 48.2777 6.97856 48.2051 7.10483C48.1325 7.2311 48.0343 7.34075 47.9167 7.42668C46.7292 8.46834 44.7917 10.7183 44.7917 12.1038C44.7807 12.2362 44.7993 12.3693 44.8461 12.4936C44.893 12.6179 44.9669 12.7303 45.0625 12.8225C45.3185 13.0484 45.5152 13.3337 45.635 13.6534C45.7549 13.9731 45.7944 14.3173 45.75 14.6558C45.5312 15.9788 43.9583 16.7392 42.2917 17.5725C41.4896 17.9683 39.8229 18.7913 39.7083 19.2183C39.8084 19.854 40.0644 20.455 40.4534 20.9675C40.8423 21.4801 41.3522 21.8884 41.9375 22.1558C42.206 22.3049 42.5173 22.3583 42.8201 22.3072C43.1229 22.2561 43.3994 22.1035 43.6042 21.8746C43.8084 21.6739 44.0542 21.5205 44.3241 21.4251C44.5941 21.3297 44.8817 21.2947 45.1667 21.3225C48.6562 21.5725 56.1458 31.3433 57.6667 33.3017C58.9896 34.9475 59.5312 34.8746 59.5417 34.8746C59.9896 34.8121 60.5833 33.1246 60.9792 32.2183C61.375 30.9205 62.0227 29.7135 62.8854 28.6663C63.3542 28.1975 63.2917 27.9371 63.2812 27.8329C63.1458 27.2183 62.0937 25.8329 56.4479 23.5829C52.9167 22.1663 52.5 20.8433 52.9687 19.0308C53.1354 18.3954 53.1979 18.1871 52.7083 17.6975C51.3542 16.3433 51.3958 15.2704 51.6667 14.5725C52.25 13.1663 54.3125 12.4892 57.9688 12.4892C58.9269 12.5766 59.8835 12.3055 60.6532 11.7282C61.4229 11.1509 61.9511 10.3085 62.1354 9.36418C62.181 9.08791 62.3345 8.84107 62.562 8.67795C62.7896 8.51483 63.0727 8.4488 63.349 8.49439C63.6252 8.53997 63.8721 8.69343 64.0352 8.92102C64.1983 9.1486 64.2643 9.43166 64.2187 9.70793C63.939 11.1347 63.1516 12.4117 62.0024 13.3023C60.8532 14.1929 59.4202 14.6368 57.9688 14.5517C54.75 14.5517 53.7083 15.1454 53.5937 15.3538C53.5937 15.3538 53.5937 15.6246 54.1771 16.1663C54.6249 16.5829 54.9406 17.1219 55.085 17.7162C55.2294 18.3106 55.1963 18.9343 54.9896 19.51C54.8125 20.1767 54.7083 20.5517 57.2187 21.5933C62.5 23.6767 64.9167 25.4267 65.3125 27.3642C65.4062 27.8616 65.367 28.375 65.1987 28.8523C65.0304 29.3297 64.7391 29.7542 64.3542 30.0829C63.7154 30.936 63.2323 31.8952 62.9271 32.9163C62.2187 34.7392 61.4896 36.635 59.8021 36.885C59.6933 36.9167 59.5816 36.9376 59.4687 36.9475Z" fill="black" stroke="black"/>
<path d="M70.2186 55.2086C70.0534 55.2078 69.8907 55.1678 69.7439 55.0917C69.5972 55.0156 69.4707 54.9057 69.3749 54.7711C68.1511 52.9417 67.0346 51.0426 66.0311 49.0836C65.8957 48.8024 65.7082 48.7399 64.1561 49.0836C61.9177 49.6786 59.5408 49.4608 57.4478 48.469C57.0654 48.3293 56.7161 48.1119 56.422 47.8305C56.1278 47.5491 55.8951 47.2098 55.7385 46.834C55.5819 46.4582 55.5049 46.0541 55.5122 45.6471C55.5195 45.24 55.6111 44.8389 55.7811 44.469C56.927 41.7086 62.0311 38.7607 65.0311 39.7711C67.4582 40.5732 68.2082 39.3336 69.427 36.8961C70.6457 34.4586 74.2915 34.6565 77.2082 34.8128L78.3124 34.8753C78.5795 34.8887 78.8313 35.0043 79.0155 35.1982C79.1997 35.3921 79.3023 35.6495 79.302 35.9169C79.302 36.1932 79.1922 36.4582 78.9969 36.6535C78.8015 36.8489 78.5366 36.9586 78.2603 36.9586L77.0832 36.8649C74.9999 36.7399 71.8749 36.5419 71.302 37.7711C70.177 40.0211 68.6353 43.1044 64.3853 41.6878C62.6249 41.1044 58.5103 43.2815 57.7082 45.219C57.5415 45.6357 57.4478 46.0836 58.3853 46.5524C60.0783 47.3366 61.9964 47.4881 63.7915 46.9794C65.229 46.7086 67.0207 46.3857 67.9582 48.1461C68.8985 50.0049 69.9417 51.8098 71.0832 53.5524C71.198 53.7093 71.2665 53.8952 71.2811 54.089C71.2957 54.2829 71.2557 54.4769 71.1658 54.6493C71.0758 54.8216 70.9394 54.9653 70.7721 55.0641C70.6047 55.163 70.413 55.213 70.2186 55.2086Z" fill="black" stroke="black"/>
<path d="M50.3014 63.5414C44.558 63.5414 38.9435 61.8384 34.1678 58.6477C29.3922 55.457 25.6698 50.9219 23.4714 45.6159C21.273 40.3098 20.6973 34.471 21.817 28.8378C22.9368 23.2045 25.7017 18.0298 29.7622 13.9678C33.8227 9.90585 38.9965 7.13907 44.6293 6.01732C50.2622 4.89556 56.1011 5.4692 61.408 7.6657C66.7148 9.8622 71.2513 13.5829 74.4436 18.3574C77.636 23.1319 79.341 28.7458 79.3431 34.4893C79.3348 42.19 76.2728 49.5732 70.8285 55.0194C65.3842 60.4656 58.0022 63.5303 50.3014 63.5414ZM50.3014 7.54135C44.9691 7.54135 39.7566 9.1227 35.3231 12.0854C30.8896 15.0481 27.4343 19.259 25.3942 24.1856C23.3541 29.1122 22.8208 34.5331 23.8619 39.7628C24.9029 44.9925 27.4715 49.796 31.2427 53.5658C35.0139 57.3356 39.8184 59.9023 45.0485 60.9413C50.2786 61.9803 55.6994 61.445 60.6252 59.4029C65.551 57.3609 69.7606 53.904 72.7215 49.4694C75.6825 45.0347 77.2618 39.8216 77.2598 34.4893C77.2515 27.342 74.4086 20.4899 69.3547 15.436C64.3008 10.3821 57.4487 7.53921 50.3014 7.53094V7.54135Z" fill="black" stroke="black"/>
</svg>
