<svg width="100" height="98" viewBox="0 0 100 98" fill="none" xmlns="http://www.w3.org/2000/svg">
<path d="M94.9187 58.5156L91.7547 53.4167C90.0151 50.6146 86.3458 49.7578 83.5567 51.5078C80.7755 53.25 79.9239 56.9583 81.6609 59.75L84.825 64.8281C87.3093 68.8151 84.4552 73.9922 79.7729 73.9922H61.9031L61.9083 68.6172C61.9083 64.6198 57.0958 62.6172 54.2807 65.4453L41.9187 77.8672C40.7599 79.0313 40.7599 80.9349 41.9187 82.099L54.2833 94.5052C57.0984 97.3281 61.9057 95.3255 61.9057 91.3307L61.9005 85.9661H79.7442C93.7807 85.9661 102.343 70.4635 94.9161 58.5156H94.9187ZM55.0437 16.9375L62.7234 29.3047L58.2078 32.125C54.8276 34.2396 55.6817 39.4063 59.5619 40.3099L76.5776 44.2656C78.1817 44.638 79.7859 43.6328 80.1531 42.0208L84.0698 24.9245C84.9604 21.0339 80.7286 17.9948 77.3562 20.1068L72.8224 22.9479L65.1531 10.6146C58.1557 -0.630207 41.8458 -0.638018 34.8458 10.6042L33.4682 12.8151C31.7364 15.5911 32.5932 19.2995 35.3484 21.0443C38.1271 22.7943 41.8224 21.9583 43.5593 19.1667L44.9448 16.9427C47.3172 13.1302 52.7729 13.2708 55.0437 16.9427V16.9375ZM35.8875 47.6328C36.7807 51.5234 32.5359 54.5703 29.1687 52.4375L24.6453 49.5963L15.1687 64.8229C12.6869 68.8099 15.5411 73.9818 20.2234 73.9818H26.1843C29.4682 73.9818 32.1375 76.6589 32.1375 79.9583C32.1375 83.2578 29.4682 85.9531 26.1843 85.9531H20.2416C6.21299 85.9531 -2.3391 70.4635 5.07497 58.5026L14.5359 43.276L10.002 40.4141C6.62965 38.2812 7.49163 33.1224 11.3666 32.224L28.3875 28.2682C29.9864 27.9219 31.6062 28.8958 31.9786 30.5208L35.8875 47.6302V47.6328Z" stroke="black" stroke-width="3" stroke-miterlimit="10"/>
</svg>
